<svg >

  <path class="path" fill="white" stroke="#3da5d1" stroke-width="2" d="m6.75187,6.4684c0,0.37453 -0.3442,1.16367 0,2.62173c0.38483,1.63015 1.35005,3.53163 3.37079,5.24345c2.45834,2.08252 5.59803,3.18305 8.23971,3.37079c2.61513,0.18585 4.11986,0 5.24345,0c0.37453,0 1.66997,-0.25971 1.87266,-0.74906c0.14333,-0.34602 0,-0.74907 -0.74906,-1.1236c-0.74907,-0.37453 -1.80691,-0.03666 -2.2472,-0.74907c-0.1969,-0.3186 0.01607,-0.10853 0.37453,0c1.29245,0.39132 2.0445,0.63425 2.24719,1.1236c0.14333,0.34602 0.46058,0.38455 0.37453,0.74907c-0.19241,0.81507 -1.20288,1.39106 -2.24719,2.24719c-0.81923,0.67161 -1.49813,0.74906 -1.87266,1.1236l-0.37453,0" pathLength="1" />
  
</svg>