<svg >

  <path class="path" fill="transparent" stroke="#f7532a" stroke-width="2" d="m120.55076,16.8602c-1.2066,-0.97088 -5.9829,-2.42644 -16.89244,-2.91263c-15.66183,-0.69797 -34.25605,-0.31445 -53.09051,4.85438c-19.94428,5.47341 -34.55777,11.33669 -41.02449,19.41753c-5.58126,6.97437 -5.43503,15.48555 1.2066,22.33016c6.84605,7.05525 26.18138,13.60401 56.71032,20.38841c35.82904,7.96223 75.13678,12.44505 107.38763,8.73789c29.86188,-3.43257 53.41349,-11.95899 63.94994,-21.35928c7.22795,-6.44854 6.10226,-13.16027 1.2066,-19.41753c-6.83339,-8.73394 -22.24454,-16.82487 -43.43769,-23.30104c-19.98817,-6.10794 -48.2641,-7.76701 -78.42917,-7.76701c-24.13205,0 -50.79919,0.43365 -72.39616,3.88351c-15.78995,2.52225 -29.97931,4.95684 -34.99148,10.67964c-2.86581,3.27214 -4.51113,9.95872 -2.41321,15.53402c2.52139,6.70069 13.63436,14.66674 30.16506,22.33016c19.64306,9.10626 49.4032,15.08041 80.84237,17.47578c32.52205,2.47787 64.75234,4.03155 88.08199,-2.91263c17.71319,-5.2724 29.53225,-14.16809 31.37167,-22.33016c1.93759,-8.59767 -1.35967,-18.07496 -8.44622,-25.24279c-8.49855,-8.59601 -28.35067,-17.9407 -57.91692,-25.24279c-34.41191,-8.49883 -72.39616,-10.67964 -104.97443,-10.67964l-21.71885,2.91263l-13.27263,3.88351l-2.41321,0" pathLength="1" />
  
</svg>