<svg >
  <path transform="scale(2, 2) rotate(-90 22) " class="path" fill="transparent" stroke="#ff8c2e" stroke-width="2" d="m21.33039,16.8849c-0.32258,0 -2.22108,-0.9668 -6.45161,-1.29032c-5.78954,-0.44275 -11.64926,-0.25689 -17.09677,0.64516c-4.5566,0.75453 -7.4912,2.16903 -8.70967,3.2258c-0.68927,0.5978 -1.08598,1.62015 -0.96774,2.58064c0.16251,1.32007 1.35662,3.25031 3.87097,4.83871c2.68598,1.69682 7.41264,2.41929 13.2258,2.58064c6.77158,0.18795 14.00177,-0.99565 19.35483,-3.54839c3.64832,-1.73979 5.64394,-3.84122 5.80645,-5.16129c0.11824,-0.96049 -0.64516,-1.93548 -2.25806,-3.2258c-1.6129,-1.29032 -5.12431,-2.25712 -9.35484,-2.58064c-5.14626,-0.39355 -10.69342,0.48687 -15.16128,1.93548c-3.59164,1.16452 -5.80645,2.58064 -7.41935,3.22581l-0.64516,0.32258l0,0.32258l-0.32258,0" pathLength="1" />
</svg>