<svg >

  <path transform="scale(2, 2) " class="path" fill="white" stroke="#3d3fd1" stroke-width="2" d="m5.70058,3.52203c0.27397,0 0.80913,0.13672 3.0137,0.27397c2.73443,0.17024 5.20547,0 7.67122,0c1.36986,0 1.99805,-0.19373 2.19178,0c0.19373,0.19373 -0.05311,0.55628 0.27397,2.46575c0.47172,2.75387 0.69496,6.5776 0.82192,10.13698c0.13707,3.84294 0.27397,7.12328 0.27397,9.04109c0,1.36986 0.25178,2.49507 0,3.56164c-0.14075,0.59623 -0.23009,0.82545 -0.27397,1.09589c-0.13878,0.85519 -0.27397,1.09589 -0.54795,1.09589c-0.27397,0 -1.01698,0.54291 -2.46575,0.82192c-1.61417,0.31086 -3.83561,0 -6.30136,0l-2.73972,0l-1.36986,0l0,-0.27398" pathLength="1" />
  
</svg>