<svg >

  <path class="path" fill="white" stroke="yellow" stroke-width="2" d="m5.14026,13.60652c0,-0.26178 0.84183,-1.79576 2.35602,-4.18847c1.63251,-2.57969 3.2169,-4.67755 3.66491,-5.75915c0.31679,-0.76481 0.56266,-0.92296 0.78534,-0.78534c1.4938,0.92322 2.22426,4.51386 3.66492,7.32983c0.96126,1.87892 2.1402,3.16698 1.83246,3.66492c-0.13763,0.22268 -1.28255,-0.81661 -3.14136,-2.35602c-2.58194,-2.13829 -5.69382,-4.5375 -8.11517,-6.28271c-1.5314,-1.10377 -1.81253,-1.1473 -1.57068,-1.04712c0.34203,0.14167 1.28111,0.95131 3.92669,1.3089c3.64114,0.49216 7.85339,0.26178 10.73297,0.26178c1.57068,0 1.83246,-0.26178 1.57068,0c-0.52356,0.52356 -1.62924,2.42581 -4.45025,3.92669c-3.21894,1.7126 -7.06805,2.35602 -9.94763,3.40313l-1.83246,0.52356l-0.52356,0.26178" pathLength="1" />
  
</svg>