<svg >

  <path class="path" fill="transparent" stroke="#50e043" stroke-width="2" d="m8.5434,3.92067c1.04712,0 3.92179,0.13085 9.16229,0.26178c8.63604,0.21576 18.32457,0 25.39262,0c4.45025,0 5.23559,0 4.97381,0c-0.26178,0 -2.07026,0.17293 -5.23559,0.52356c-4.69061,0.51959 -9.68584,0.78534 -15.445,0.78534c-5.75915,0 -10.98721,-0.39257 -14.39788,-0.52356c-1.83111,-0.07032 -0.78534,0 1.83246,0c4.18847,0 9.16348,0.4091 14.65966,0.52356c6.2868,0.13092 11.26508,0.28231 14.65966,0.52356c1.84641,0.13122 0.78534,0.26178 -2.09424,0.26178c-4.18847,0 -10.2094,0 -18.06279,0c-8.90051,0 -15.96856,0 -19.89525,0.26178l-1.3089,0.26178" pathLength="1" />
  
</svg>